<?xml version="1.0" standalone="yes"?>
<svg xmlns="http://www.w3.org/2000/svg" width="3354" height="604">
    <path style="fill:#ffffff; stroke:none;" d="M0 0L0 280L1 280C1.18622 257.505 10.9629 233.959 22.4005 215C57.8114 156.301 127.025 121.61 195 130.285C248.81 137.153 292.485 172.063 320.947 217C352.463 266.76 343 336.992 343 393C343 411.021 348.308 439.945 338.775 456C320.974 485.983 277.004 470.877 277 438C268.065 442.093 260.773 449.935 252 454.691C234.536 464.159 215.66 469.363 196 471.715C169.703 474.86 141.171 473.365 116 464.656C57.748 444.501 1.53196 382.261 1 318L0 318L0 604L3041 604L3041 603C3025.83 601.446 3014.92 585.291 3013.18 571C3011.49 557.055 3013 542.049 3013 528L3013 444L3013 346C3013 284.761 3015.87 223.912 3064 179.09C3079.62 164.543 3097.8 153.843 3117 144.781C3136.31 135.668 3157.7 130.972 3179 130.039C3204.27 128.933 3230.31 134.599 3253 145.756C3309.6 173.582 3348.57 227.604 3352.91 291C3359.54 387.86 3269.3 482.431 3170 470.715C3151.09 468.483 3132.65 466.646 3115 458.688C3101.47 452.59 3090.45 443.755 3078 436L3078 535C3078 549.392 3081.19 568.224 3076.78 582C3072.84 594.307 3059.05 601.221 3047 603L3047 604L3354 604L3354 0L0 0z"/>
    <path style="fill:#ffcb15; stroke:none;" d="M2376 153L2376 62C2376 49.22 2378.95 32.1259 2374.61 20C2365.06 -6.72473 2323.32 -4.39667 2313.45 20C2308.57 32.0745 2310 45.2421 2310 58L2310 123L2310 351L2310 413C2310 423.142 2308.27 435.131 2310.76 445C2314.7 460.608 2326.62 474.253 2344 472.812C2385.71 469.352 2376 421.468 2376 392L2376 313C2376 295.016 2375.11 275.514 2379.93 258C2389.12 224.597 2421.09 195.493 2456 193.09C2467.68 192.285 2479.7 193.397 2491 196.49C2499.45 198.803 2507.96 204.048 2515 209.158C2562.65 243.752 2553 300.101 2553 352L2553 401C2553 414.527 2551.1 429.655 2553.33 443C2558.11 471.729 2591.03 482.289 2611.96 461.907C2621.33 452.777 2620 439.987 2620 428L2620 356C2620 309.252 2626.32 259.424 2605.68 216C2576.05 153.643 2511.53 119.605 2444 126.834C2419.8 129.425 2394.43 136.183 2376 153z"/>
    <path style="fill:#939301; stroke:none;" d="M2325 4L2326 5L2325 4M2358 4L2359 5L2358 4M2362 6L2363 7L2362 6z"/>
    <path style="fill:#010101; stroke:none;" d="M2321 7L2322 8L2321 7z"/>
    <path style="fill:#939301; stroke:none;" d="M2320 8L2321 9L2320 8M2315 15L2316 16L2315 15z"/>
    <path style="fill:#010101; stroke:none;" d="M2372 15L2373 16L2372 15z"/>
    <path style="fill:#939301; stroke:none;" d="M2314 17L2315 18L2314 17M2312 22L2313 23L2312 22M2446 126L2447 127L2446 126M2437 127L2438 128L2437 127z"/>
    <path style="fill:#015dcb; stroke:none;" d="M277 437C277 467.858 313.491 485.98 335.812 460.985C348.205 447.106 343 418.26 343 401C343 343.858 351.163 278.299 326.11 225C317.759 207.232 303.068 189.558 288.999 176.039C268.486 156.329 243.537 141.498 216 134.155C123.36 109.453 21.3061 171.703 2.44907 266C-12.6762 341.636 27.0457 423.588 97 457.216C125.736 471.03 156.593 474.252 188 472.09C220.575 469.846 253.071 460.433 277 437z"/>
    <path style="fill:#010101; stroke:none;" d="M1387 129L1388 130L1387 129z"/>
    <path style="fill:#015dcb; stroke:none;" d="M1508 438C1508 468.361 1544.75 484.594 1566.53 461.699C1579.89 447.664 1574 416.825 1574 399C1574 342.576 1582.03 278.746 1557.69 226C1550.45 210.313 1538.34 195.728 1526.83 183C1513.36 168.104 1496.84 155.462 1479 146.258C1385.81 98.1887 1266.09 154.04 1236.72 253C1212.24 335.495 1258.73 429.178 1338 461.548C1394.45 484.599 1460.2 474.025 1508 438z"/>
    <path style="fill:#010101; stroke:none;" d="M1419 129L1420 130L1419 129M1661 129L1662 130L1661 129z"/>
    <path style="fill:#015dcb; stroke:none;" d="M1702 162C1701.49 137.324 1671.39 119.877 1650 134.108C1642.2 139.299 1638.08 149.028 1636.46 158C1634.24 170.372 1636 184.44 1636 197L1636 275L1636 386C1636 404.285 1634.01 423.851 1636.18 442C1639.5 469.635 1669.04 481.912 1691 464.61C1710.03 449.618 1702 408.639 1702 387L1702 316C1702 297.338 1701.8 276.624 1708.93 259C1715.54 242.645 1729.4 226.701 1743 215.808C1751.11 209.306 1760.18 204.121 1770 200.695C1782.03 196.498 1794.36 195.705 1807 196.015C1819.85 196.33 1833.54 200.105 1845 205.756C1920.01 242.733 1903 338.84 1903 408C1903 420.825 1901.09 435.386 1903.47 448C1908.43 474.314 1944.98 478.836 1961.91 461.907C1971.27 452.538 1970 439.205 1970 427L1970 350C1970 301.832 1972.36 256.302 1947.57 213C1899.38 128.792 1778.94 99.9921 1702 162z"/>
    <path style="fill:#010101; stroke:none;" d="M148 130L149 131L148 130M1775 130L1776 131L1775 130M1827 130L1828 131L1827 130z"/>
    <path style="fill:#ffcb15; stroke:none;" d="M3078 436C3158.32 500.735 3282.18 471.039 3332.57 383C3346.91 357.958 3353 328.624 3353 300C3353 281.212 3350.22 261.666 3343.57 244C3335.46 222.42 3323.68 201.995 3308 185.004C3290.58 166.135 3267.86 150.915 3244 141.45C3154.98 106.134 3049.2 157.977 3021.03 249C3012.38 276.932 3013 306.123 3013 335L3013 438L3013 552C3013 568.824 3012.9 588.613 3029 599.031C3044.61 609.126 3072.96 599.885 3077.32 581C3080.73 566.254 3078 548.117 3078 533L3078 436z"/>
    <path style="fill:#015dcb; stroke:none;" d="M515 131.425C489.81 134.854 464.829 142.693 444 157.579C403.205 186.732 363.093 239.019 399.478 288C404.65 294.962 410.766 301.54 418 306.402C428.32 313.338 442.153 315.943 454 319.151C476.254 325.178 498.637 330.536 521 336.127C541.247 341.188 561.658 345.688 582 350.349C587.473 351.603 600.99 351.746 600.573 360.004C600.26 366.214 591.939 373.765 587.911 377.985C572.452 394.18 549.474 404.265 527 403.981C504.986 403.704 482.364 395.634 466.04 380.711C448.8 364.951 439.058 339.707 411 348.036C406.818 349.278 402.618 350.708 399.015 353.224C372.994 371.393 395.881 406.147 411.039 422C445.946 458.505 492.436 477.765 543 471.715C568.327 468.684 590.809 460.466 612 446.333C654.391 418.062 692.62 360.682 653.535 313C648.041 306.297 641.28 299.375 634 294.61C624.635 288.479 610.728 287.129 600 284.37C578.034 278.722 556.112 272.726 534 267.651C513.11 262.857 492.343 256.153 471 253.834C466.974 253.397 453.381 252.074 454.542 245.699C456.063 237.351 467.102 226.644 473.004 221.09C501.305 194.455 545.704 191.939 578 212.865C593.87 223.148 601.361 240.9 617 250.91C628.716 258.408 644.409 258.312 656 250.2C682.391 231.729 662.492 200.339 646.83 183C613.975 146.624 564.582 124.676 515 131.425z"/>
    <path style="fill:#010101; stroke:none;" d="M1833 131L1834 132L1833 131z"/>
    <path style="fill:#ffcb15; stroke:none;" d="M2125 131.425C2099.73 134.865 2074.99 142.57 2054 157.424C2012.64 186.691 1973.98 237.296 2008.35 287C2013.46 294.396 2020.58 301.569 2028 306.671C2037.28 313.05 2050.31 315.373 2061 318.421C2083.42 324.813 2106.21 330.862 2129 335.79C2150.06 340.342 2170.98 345.6 2192 350.35C2197.33 351.553 2210.96 351.907 2210.2 360.004C2209.35 369.115 2195.52 380.189 2189 385.535C2158.51 410.539 2113.08 408.775 2082 385.844C2067.93 375.463 2060.65 358.05 2045 349.349C2033.82 343.135 2018.03 346.515 2008 353.789C1984.04 371.183 2004.18 404.79 2019.01 420C2055.01 456.898 2099.8 477.961 2152 471.715C2177.29 468.688 2199.82 460.81 2221 446.667C2263.48 418.294 2301.75 362.402 2263.98 314C2258.38 306.818 2251.56 299.938 2244 294.799C2235.14 288.777 2221.3 287.202 2211 284.627L2144 267.873C2123.35 262.711 2102.22 255.932 2081 253.925C2076.12 253.464 2063.42 252.367 2064.68 244.996C2066.09 236.746 2076.37 227.577 2082 222.004C2110.28 194.014 2156.44 191.597 2189 213.746C2204.41 224.228 2211.94 242.505 2228 251.662C2240.43 258.751 2255.35 257.654 2267 249.211C2292.07 231.041 2271.42 200.605 2257.13 184C2225.16 146.859 2174.39 124.702 2125 131.425z"/>
    <path style="fill:#010101; stroke:none;" d="M2797 131L2798 132L2797 131z"/>
    <path style="fill:#ffcb15; stroke:none;" d="M2798 131.424C2768.84 135.265 2741.55 144.037 2717 160.746C2699.19 172.872 2683.45 189.225 2671.34 207C2631.36 265.728 2633.68 349.513 2677.51 406C2714.39 453.525 2774.75 478.824 2834 471.715C2859.24 468.686 2885.26 459.649 2906 444.859C2952.86 411.449 2981.43 364.936 2983.96 307C2988.21 209.806 2896.56 118.445 2798 131.424z"/>
    <path style="fill:#010101; stroke:none;" d="M1439 132L1440 133L1439 132z"/>
    <path style="fill:#939301; stroke:none;" d="M2117 132L2118 133L2117 132M2164 132L2165 133L2164 132M2414 132L2415 133L2414 132z"/>
    <path style="fill:#010101; stroke:none;" d="M133 133L134 134L133 133M1842 133L1843 134L1842 133M2844 133L2845 134L2844 133M497 134L498 135L497 134z"/>
    <path style="fill:#939301; stroke:none;" d="M2175 134L2176 135L2175 134M2408 134L2409 135L2408 134z"/>
    <path style="fill:#010101; stroke:none;" d="M2849 134L2850 135L2849 134z"/>
    <path style="fill:#939301; stroke:none;" d="M3145 134L3146 135L3145 134z"/>
    <path style="fill:#010101; stroke:none;" d="M493 135L494 136L493 135z"/>
    <path style="fill:#015dcb; stroke:none;" d="M948 182L947 182C939.685 167.899 921.883 156.235 908 149.248C867.07 128.649 808.719 127.901 770 154C764.016 133.663 734.975 129.116 719.004 140.638C711.023 146.395 707.718 155.697 706.084 165C700.074 199.227 705 238.242 705 273C705 327.52 701.106 383.643 705.09 438C707.097 465.381 732.86 481.442 757 466.532C777.206 454.052 770 420.353 770 400L770 307C770 289.787 768.3 269.585 773.595 253C785.989 214.177 825.813 191.964 865 203.721C884.277 209.505 904.583 226.259 910.561 246C917.438 268.71 916 292.585 916 316L916 417C916 428.832 914.203 442.785 918.765 454C925.178 469.768 948.025 476.842 963 470.095C987.508 459.052 981 422.48 981 401L981 306C981 288.372 978.867 269.106 983.913 252C991.185 227.349 1014.93 203.777 1041 201.171C1079.06 197.365 1117.62 218.405 1125.2 258C1128.11 273.238 1126 290.506 1126 306L1126 396C1126 413.173 1124.63 430.985 1127.17 448C1131.18 474.831 1169.54 479.307 1185.47 460.826C1192.1 453.129 1191 443.441 1191 434L1191 379L1191 296C1191 278.389 1192.39 260.304 1188.58 243C1181.26 209.811 1161.41 180.255 1134 160.155C1091.38 128.903 1036.72 128.921 990 150.231C974.637 157.238 955.888 166.164 948 182z"/>
    <path style="fill:#010101; stroke:none;" d="M1044 135L1045 136L1044 135M223 136L224 137L223 136M727 136L728 137L727 136M817 136L818 137L817 136M1688 136L1689 137L1688 136z"/>
    <path style="fill:#939301; stroke:none;" d="M2099 136L2100 137L2099 136M2183 136L2184 137L2183 136z"/>
    <path style="fill:#010101; stroke:none;" d="M2522 136L2523 137L2522 136z"/>
    <path style="fill:#939301; stroke:none;" d="M2857 136L2858 137L2857 136z"/>
    <path style="fill:#010101; stroke:none;" d="M3229 136L3230 137L3229 136M226 137L227 138L226 137M486 137L487 138L486 137z"/>
    <path style="fill:#939301; stroke:none;" d="M3232 137L3233 138L3232 137z"/>
    <path style="fill:#010101; stroke:none;" d="M580 138L581 139L580 138M757 138L758 139L757 138M806 138L807 139L806 138M878 138L879 139L878 138M1086 138L1087 139L1086 138M1742 138L1743 139L1742 138M1858 138L1859 139L1858 138z"/>
    <path style="fill:#939301; stroke:none;" d="M3235 138L3236 139L3235 138z"/>
    <path style="fill:#010101; stroke:none;" d="M882 139L883 140L882 139M1692 139L1693 140L1692 139z"/>
    <path style="fill:#939301; stroke:none;" d="M3129 139L3130 140L3129 139M3238 139L3239 140L3238 139z"/>
    <path style="fill:#010101; stroke:none;" d="M795 141L796 142L795 141M1339 141L1340 142L1339 141M2084 141L2085 142L2084 141M1009 142L1010 143L1009 142M241 143L242 144L241 143M593 143L594 144L593 143M1334 143L1335 144L1334 143z"/>
    <path style="fill:#939301; stroke:none;" d="M3119 143L3120 144L3119 143z"/>
    <path style="fill:#010101; stroke:none;" d="M3248 143L3249 144L3248 143M897 144L898 145L897 144M1872 144L1873 145L1872 144M1001 145L1002 146L1001 145M1874 145L1875 146L1874 145M1110 146L1111 147L1110 146M996 147L997 148L996 147z"/>
    <path style="fill:#939301; stroke:none;" d="M2545 148L2546 149L2545 148z"/>
    <path style="fill:#010101; stroke:none;" d="M1484 149L1485 150L1484 149M1118 150L1119 151L1118 150M1638 150L1639 151L1638 150M987 151L988 152L987 151M1716 151L1717 152L1716 151M2218 151L2219 152L2218 151M3264 151L3265 152L3264 151M610 152L611 153L610 152z"/>
    <path style="fill:#939301; stroke:none;" d="M2061 152L2062 153L2061 152z"/>
    <path style="fill:#010101; stroke:none;" d="M1315 153L1316 154L1315 153M1713 153L1714 154L1713 153M261 154L262 155L261 154M2058 154L2059 155L2058 154z"/>
    <path style="fill:#939301; stroke:none;" d="M3269 154L3270 155L3269 154z"/>
    <path style="fill:#010101; stroke:none;" d="M918 155L919 156L918 155M2555 155L2556 156L2555 155M3095 155L3096 156L3095 155M264 156L265 157L264 156M977 156L978 157L977 156M1128 156L1129 157L1128 156M1309 157L1310 158L1309 157z"/>
    <path style="fill:#939301; stroke:none;" d="M2722 157L2723 158L2722 157z"/>
    <path style="fill:#010101; stroke:none;" d="M619 158L620 159L619 158M707 158L708 159L707 158M1897 159L1898 160L1897 159z"/>
    <path style="fill:#939301; stroke:none;" d="M2051 159L2052 160L2051 159z"/>
    <path style="fill:#010101; stroke:none;" d="M2230 159L2231 160L2230 159M2560 159L2561 160L2560 159M925 160L926 161L925 160z"/>
    <path style="fill:#939301; stroke:none;" d="M3087 160L3088 161L3087 160z"/>
    <path style="fill:#010101; stroke:none;" d="M623 161L624 162L623 161M1135 161L1136 162L1135 161M706 162L707 163L706 162z"/>
    <path style="fill:#939301; stroke:none;" d="M3084 162L3085 163L3084 162z"/>
    <path style="fill:#010101; stroke:none;" d="M2912 163L2913 164L2912 163M68 164L69 165L68 164M930 164L931 165L930 164M1506 164L1507 165L1506 164M276 165L277 166L276 165M628 165L629 166L628 165M1140 165L1141 166L1140 165z"/>
    <path style="fill:#939301; stroke:none;" d="M2043 165L2044 166L2043 165M3077 167L3078 168L3077 167z"/>
    <path style="fill:#010101; stroke:none;" d="M959 168L960 169L959 168z"/>
    <path style="fill:#939301; stroke:none;" d="M2241 168L2242 169L2241 168z"/>
    <path style="fill:#010101; stroke:none;" d="M2038 169L2039 170L2038 169M1911 170L1912 171L1911 170M283 171L284 172L283 171z"/>
    <path style="fill:#939301; stroke:none;" d="M2922 171L2923 172L2922 171M3294 172L3295 173L3294 172z"/>
    <path style="fill:#010101; stroke:none;" d="M2701 173L2702 174L2701 173M1287 174L1288 175L1287 174M3066 176L3067 177L3066 176M2029 177L2030 178L2029 177z"/>
    <path style="fill:#939301; stroke:none;" d="M2028 178L2029 179L2028 178M3301 178L3302 179L3301 178z"/>
    <path style="fill:#010101; stroke:none;" d="M946 180L947 181L946 180z"/>
    <path style="fill:#939301; stroke:none;" d="M2026 180L2027 181L2026 180M2581 180L2582 181L2581 180M2025 181L2026 182L2025 181M3304 181L3305 182L3304 181M2255 182L2256 183L2255 182M2023 183L2024 184L2023 183z"/>
    <path style="fill:#010101; stroke:none;" d="M2256 183L2257 184L2256 183M296 184L297 185L296 184M2022 184L2023 185L2022 184M649 186L650 187L649 186M1529 186L1530 187L1529 186z"/>
    <path style="fill:#939301; stroke:none;" d="M3055 187L3056 188L3055 187z"/>
    <path style="fill:#010101; stroke:none;" d="M1162 188L1163 189L1162 188M3054 188L3055 189L3054 188z"/>
    <path style="fill:#939301; stroke:none;" d="M2261 189L2262 190L2261 189z"/>
    <path style="fill:#010101; stroke:none;" d="M2589 190L2590 191L2589 190M2684 190L2685 191L2684 190M1270 191L1271 192L1270 191M1165 192L1166 193L1165 192M2475 193L2476 194L2475 193z"/>
    <path style="fill:#939301; stroke:none;" d="M2265 194L2266 195L2265 194z"/>
    <path style="fill:#ffffff; stroke:none;" d="M157 196.425C70.7015 208.172 35.4369 318.802 99 377.91C107.72 386.019 118.926 394.021 130 398.546C148.822 406.238 170.053 407.4 190 404.711C205.164 402.668 219.8 396.24 232 387.105C250.026 373.607 265.11 354.649 271.971 333C294.904 260.643 232.543 186.142 157 196.425z"/>
    <path style="fill:#010101; stroke:none;" d="M184 196L185 197L184 196M657 196L658 197L657 196z"/>
    <path style="fill:#ffffff; stroke:none;" d="M1388 196.425C1300.79 208.296 1264.22 324.767 1334 381.195C1342.38 387.975 1351.89 394.976 1362 398.932C1380.46 406.152 1401.53 407.476 1421 404.715C1436.08 402.576 1450.8 396.483 1463 387.335C1481.06 373.799 1496.31 354.653 1503.25 333C1526.53 260.444 1463.3 186.175 1388 196.425z"/>
    <path style="fill:#939301; stroke:none;" d="M2679 196L2680 197L2679 196M2946 196L2947 197L2946 196z"/>
    <path style="fill:#010101; stroke:none;" d="M1265 197L1266 198L1265 197M1781 197L1782 198L1781 197z"/>
    <path style="fill:#939301; stroke:none;" d="M2594 197L2595 198L2594 197z"/>
    <path style="fill:#ffffff; stroke:none;" d="M3168 197.428C3103.87 206.611 3061.93 278.294 3086.45 339C3105.18 385.378 3153.99 409.027 3202 402.711C3266.13 394.274 3302.16 320.06 3279.94 262C3263 217.76 3214.58 190.758 3168 197.428z"/>
    <path style="fill:#010101; stroke:none;" d="M33 198L34 199L33 198M1376 198L1377 199L1376 198z"/>
    <path style="fill:#939301; stroke:none;" d="M2268 198L2269 199L2268 198z"/>
    <path style="fill:#ffffff; stroke:none;" d="M2799 198.425C2730.38 207.765 2688.56 286.509 2719.81 349C2731.92 373.216 2754.82 391.424 2780 400.564C2796.51 406.559 2814.77 407.033 2832 404.711C2897.52 395.881 2933.21 319.42 2909.55 261C2892.09 217.9 2844.54 192.226 2799 198.425z"/>
    <path style="fill:#939301; stroke:none;" d="M3161 198L3162 199L3161 198z"/>
    <path style="fill:#010101; stroke:none;" d="M1170 199L1171 200L1170 199M1372 199L1373 200L1372 199M1938 199L1939 200L1938 199M2127 199L2128 200L2127 199M3045 199L3046 200L3045 199M1434 200L1435 201L1434 200z"/>
    <path style="fill:#939301; stroke:none;" d="M2121 200L2122 201L2121 200z"/>
    <path style="fill:#010101; stroke:none;" d="M310 201L311 202L310 201M507 201L508 202L507 201M830 201L831 202L830 201M1437 201L1438 202L1437 201z"/>
    <path style="fill:#939301; stroke:none;" d="M3149 201L3150 202L3149 201M3214 201L3215 202L3214 201z"/>
    <path style="fill:#010101; stroke:none;" d="M1363 202L1364 203L1363 202M1542 202L1543 203L1542 202z"/>
    <path style="fill:#939301; stroke:none;" d="M2113 202L2114 203L2113 202z"/>
    <path style="fill:#010101; stroke:none;" d="M3217 202L3218 203L3217 202M662 203L663 204L662 203M1762 203L1763 204L1762 203z"/>
    <path style="fill:#939301; stroke:none;" d="M2506 203L2507 204L2506 203M2598 203L2599 204L2598 203M2952 204L2953 205L2952 204z"/>
    <path style="fill:#010101; stroke:none;" d="M125 205L126 206L125 205M1259 205L1260 206L1259 205z"/>
    <path style="fill:#939301; stroke:none;" d="M2006 205L2007 206L2006 205z"/>
    <path style="fill:#010101; stroke:none;" d="M2273 205L2274 206L2273 205z"/>
    <path style="fill:#939301; stroke:none;" d="M2853 205L2854 206L2853 205z"/>
    <path style="fill:#010101; stroke:none;" d="M3139 205L3140 206L3139 205M123 206L124 207L123 206z"/>
    <path style="fill:#939301; stroke:none;" d="M2176 206L2177 207L2176 206M2511 206L2512 207L2511 206M2769 206L2770 207L2769 206M3227 206L3228 207L3227 206z"/>
    <path style="fill:#010101; stroke:none;" d="M810 207L811 208L810 207M875 207L876 208L875 207M3229 207L3230 208L3229 207M1452 208L1453 209L1452 208M2099 208L2100 209L2099 208M2275 208L2276 209L2275 208z"/>
    <path style="fill:#939301; stroke:none;" d="M2514 208L2515 209L2514 208z"/>
    <path style="fill:#010101; stroke:none;" d="M2601 208L2602 209L2601 208z"/>
    <path style="fill:#939301; stroke:none;" d="M3133 208L3134 209L3133 208z"/>
    <path style="fill:#010101; stroke:none;" d="M25 209L26 210L25 209M2182 209L2183 210L2182 209z"/>
    <path style="fill:#939301; stroke:none;" d="M2763 209L2764 210L2763 209M3233 209L3234 210L3233 209z"/>
    <path style="fill:#010101; stroke:none;" d="M116 210L117 211L116 210z"/>
    <path style="fill:#939301; stroke:none;" d="M2602 210L2603 211L2602 210z"/>
    <path style="fill:#010101; stroke:none;" d="M882 211L883 212L882 211M1092 211L1093 212L1092 211z"/>
    <path style="fill:#939301; stroke:none;" d="M3037 211L3038 212L3037 211M3128 211L3129 212L3128 211z"/>
    <path style="fill:#010101; stroke:none;" d="M113 212L114 213L113 212M1549 212L1550 213L1549 212M1857 212L1858 213L1857 212M2187 212L2188 213L2187 212M2409 212L2410 213L2409 212z"/>
    <path style="fill:#939301; stroke:none;" d="M2758 212L2759 213L2758 212z"/>
    <path style="fill:#010101; stroke:none;" d="M579 213L580 214L579 213M2091 213L2092 214L2091 213z"/>
    <path style="fill:#939301; stroke:none;" d="M2958 213L2959 214L2958 213z"/>
    <path style="fill:#010101; stroke:none;" d="M480 214L481 215L480 214M799 214L800 215L799 214M1860 214L1861 215L1860 214z"/>
    <path style="fill:#939301; stroke:none;" d="M2755 214L2756 215L2755 214z"/>
    <path style="fill:#010101; stroke:none;" d="M1551 215L1552 216L1551 215M2523 215L2524 216L2523 215M2087 216L2088 217L2087 216z"/>
    <path style="fill:#939301; stroke:none;" d="M3121 216L3122 217L3121 216z"/>
    <path style="fill:#010101; stroke:none;" d="M1864 217L1865 218L1864 217z"/>
    <path style="fill:#939301; stroke:none;" d="M2000 217L2001 218L2000 217z"/>
    <path style="fill:#010101; stroke:none;" d="M2751 217L2752 218L2751 217M390 218L391 219L390 218M475 218L476 219L475 218M891 218L892 219L891 218M1102 218L1103 219L1102 218M104 219L105 220L104 219M1468 219L1469 220L1468 219M1181 220L1182 221L1181 220M1951 220L1952 221L1951 220M2401 220L2402 221L2401 220z"/>
    <path style="fill:#939301; stroke:none;" d="M3032 220L3033 221L3032 220z"/>
    <path style="fill:#010101; stroke:none;" d="M1333 221L1334 222L1333 221M2199 221L2200 222L2199 221M1952 222L1953 223L1952 222z"/>
    <path style="fill:#939301; stroke:none;" d="M2745 222L2746 223L2745 222M3031 222L3032 223L3031 222M3251 222L3252 223L3251 222z"/>
    <path style="fill:#010101; stroke:none;" d="M896 223L897 224L896 223M1248 223L1249 224L1248 223M1556 223L1557 224L1556 223M1871 223L1872 224L1871 223M2661 223L2662 224L2661 223z"/>
    <path style="fill:#939301; stroke:none;" d="M2744 223L2745 224L2744 223z"/>
    <path style="fill:#010101; stroke:none;" d="M1872 224L1873 225L1872 224M1953 224L1954 225L1953 224M2743 224L2744 225L2743 224M3030 224L3031 225L3030 224M1247 225L1248 226L1247 225M1475 225L1476 226L1475 225M1873 225L1874 226L1873 225z"/>
    <path style="fill:#939301; stroke:none;" d="M2660 225L2661 226L2660 225z"/>
    <path style="fill:#010101; stroke:none;" d="M2742 225L2743 226L2742 225M1874 226L1875 227L1874 226M1954 226L1955 227L1954 226z"/>
    <path style="fill:#939301; stroke:none;" d="M1997 226L1998 227L1997 226M2741 226L2742 227L2741 226z"/>
    <path style="fill:#010101; stroke:none;" d="M1246 227L1247 228L1246 227M1327 227L1328 228L1327 227z"/>
    <path style="fill:#939301; stroke:none;" d="M2659 227L2660 228L2659 227M2740 227L2741 228L2740 227z"/>
    <path style="fill:#010101; stroke:none;" d="M996 228L997 229L996 228M94 229L95 230L94 229z"/>
    <path style="fill:#939301; stroke:none;" d="M2658 229L2659 230L2658 229M2207 230L2208 231L2207 230M2537 230L2538 231L2537 230z"/>
    <path style="fill:#010101; stroke:none;" d="M1481 231L1482 232L1481 231M3260 231L3261 232L3260 231M462 232L463 233L462 232z"/>
    <path style="fill:#939301; stroke:none;" d="M3261 232L3262 233L3261 232z"/>
    <path style="fill:#010101; stroke:none;" d="M12 233L13 234L12 233M2209 233L2210 234L2209 233M1958 235L1959 236L1958 235z"/>
    <path style="fill:#939301; stroke:none;" d="M2390 235L2391 236L2390 235M2893 235L2894 236L2893 235z"/>
    <path style="fill:#010101; stroke:none;" d="M1242 236L1243 237L1242 236z"/>
    <path style="fill:#939301; stroke:none;" d="M2541 236L2542 237L2541 236M3340 236L3341 237L3340 236z"/>
    <path style="fill:#010101; stroke:none;" d="M1883 237L1884 238L1883 237M2068 237L2069 238L2068 237M1318 238L1319 239L1318 238M1487 238L1488 239L1487 238M2654 238L2655 239L2654 238M779 239L780 240L779 239M989 239L990 240L989 239M1885 240L1886 241L1885 240z"/>
    <path style="fill:#939301; stroke:none;" d="M2066 240L2067 241L2066 240M2897 240L2898 241L2897 240z"/>
    <path style="fill:#010101; stroke:none;" d="M258 241L259 242L258 241M664 241L665 242L664 241M3342 241L3343 242L3342 241M84 242L85 243L84 242M909 242L910 243L909 242z"/>
    <path style="fill:#939301; stroke:none;" d="M2386 242L2387 243L2386 242M2615 242L2616 243L2615 242M2728 242L2729 243L2728 242z"/>
    <path style="fill:#010101; stroke:none;" d="M1239 244L1240 245L1239 244z"/>
    <path style="fill:#939301; stroke:none;" d="M2385 244L2386 245L2385 244z"/>
    <path style="fill:#010101; stroke:none;" d="M82 245L83 246L82 245M661 245L662 246L661 245M776 245L777 246L776 245M660 246L661 247L660 246z"/>
    <path style="fill:#939301; stroke:none;" d="M2384 246L2385 247L2384 246M2546 246L2547 247L2546 246M2974 246L2975 247L2974 246M3095 246L3096 247L3095 246z"/>
    <path style="fill:#010101; stroke:none;" d="M262 247L263 248L262 247M453 247L454 248L453 247M659 247L660 248L659 247M1238 247L1239 248L1238 247M1312 247L1313 248L1312 247M385 248L386 249L385 248z"/>
    <path style="fill:#939301; stroke:none;" d="M2223 248L2224 249L2223 248z"/>
    <path style="fill:#010101; stroke:none;" d="M1890 249L1891 250L1890 249z"/>
    <path style="fill:#939301; stroke:none;" d="M2266 249L2267 250L2266 249M2723 250L2724 251L2723 250z"/>
    <path style="fill:#010101; stroke:none;" d="M1891 251L1892 252L1891 251z"/>
    <path style="fill:#939301; stroke:none;" d="M2068 251L2069 252L2068 251z"/>
    <path style="fill:#010101; stroke:none;" d="M462 252L463 253L462 252M1309 252L1310 253L1309 252M2229 252L2230 253L2229 252z"/>
    <path style="fill:#939301; stroke:none;" d="M2976 252L2977 253L2976 252z"/>
    <path style="fill:#010101; stroke:none;" d="M2231 253L2232 254L2231 253M3346 253L3347 254L3346 253M483 255L484 256L483 255M642 255L643 256L642 255M487 256L488 257L487 256M637 256L638 257L637 256z"/>
    <path style="fill:#939301; stroke:none;" d="M2648 256L2649 257L2648 256z"/>
    <path style="fill:#010101; stroke:none;" d="M982 257L983 258L982 257M2105 258L2106 259L2105 258M1125 259L1126 260L1125 259M1708 259L1709 260L1708 259z"/>
    <path style="fill:#939301; stroke:none;" d="M2109 259L2110 260L2109 259z"/>
    <path style="fill:#010101; stroke:none;" d="M2978 259L2979 260L2978 259z"/>
    <path style="fill:#939301; stroke:none;" d="M2113 260L2114 261L2113 260M2647 260L2648 261L2647 260z"/>
    <path style="fill:#010101; stroke:none;" d="M3 261L4 262L3 261M269 261L270 262L269 261M1234 262L1235 263L1234 262M1501 263L1502 264L1501 263M2979 263L2980 264L2979 263M1896 264L1897 265L1896 264M524 265L525 266L524 265M3085 265L3086 266L3085 265M71 266L72 267L71 266M528 266L529 267L528 266M2911 266L2912 267L2911 266M1233 267L1234 268L1233 267z"/>
    <path style="fill:#939301; stroke:none;" d="M2714 268L2715 269L2714 268z"/>
    <path style="fill:#010101; stroke:none;" d="M1503 269L1504 270L1503 269M2912 269L2913 270L2912 269M339 270L340 271L339 270M1999 270L2000 271L1999 270z"/>
    <path style="fill:#939301; stroke:none;" d="M2552 270L2553 271L2552 270z"/>
    <path style="fill:#010101; stroke:none;" d="M2158 271L2159 272L2158 271M2162 272L2163 273L2162 272M2713 272L2714 273L2713 272M915 273L916 274L915 273M2166 273L2167 274L2166 273M2981 273L2982 274L2981 273M2170 274L2171 275L2170 274M2174 275L2175 276L2174 275M392 276L393 277L392 276M2178 276L2179 277L2178 276z"/>
    <path style="fill:#939301; stroke:none;" d="M3082 276L3083 277L3082 276z"/>
    <path style="fill:#010101; stroke:none;" d="M2182 277L2183 278L2182 277z"/>
    <path style="fill:#939301; stroke:none;" d="M3351 277L3352 278L3351 277z"/>
    <path style="fill:#010101; stroke:none;" d="M2186 278L2187 279L2186 278M770 280L771 281L770 280z"/>
    <path style="fill:#939301; stroke:none;" d="M2982 280L2983 281L2982 280M2711 281L2712 282L2711 281z"/>
    <path style="fill:#010101; stroke:none;" d="M3081 281L3082 282L3081 281z"/>
    <path style="fill:#939301; stroke:none;" d="M2005 282L2006 283L2005 282z"/>
    <path style="fill:#010101; stroke:none;" d="M396 283L397 284L396 283M596 283L597 284L596 283z"/>
    <path style="fill:#939301; stroke:none;" d="M2007 285L2008 286L2007 285M2376 285L2377 286L2376 285z"/>
    <path style="fill:#010101; stroke:none;" d="M3285 286L3286 287L3285 286z"/>
    <path style="fill:#939301; stroke:none;" d="M2221 287L2222 288L2221 287z"/>
    <path style="fill:#010101; stroke:none;" d="M619 289L620 290L619 289M402 291L403 292L402 291z"/>
    <path style="fill:#939301; stroke:none;" d="M2236 291L2237 292L2236 291z"/>
    <path style="fill:#010101; stroke:none;" d="M2983 291L2984 292L2983 291M630 292L631 293L630 292M1573 295L1574 296L1573 295M637 297L638 298L637 297z"/>
    <path style="fill:#939301; stroke:none;" d="M2249 299L2250 300L2249 299z"/>
    <path style="fill:#010101; stroke:none;" d="M1902 301L1903 302L1902 301M342 303L343 304L342 303M414 303L415 304L414 303M645 304L646 305L645 304z"/>
    <path style="fill:#939301; stroke:none;" d="M2025 304L2026 305L2025 304z"/>
    <path style="fill:#010101; stroke:none;" d="M276 305L277 306L276 305M646 305L647 306L646 305M647 306L648 307L647 306z"/>
    <path style="fill:#939301; stroke:none;" d="M2033 309L2034 310L2033 309z"/>
    <path style="fill:#010101; stroke:none;" d="M1507 310L1508 311L1507 310M2983 311L2984 312L2983 311M2262 312L2263 313L2262 312M441 315L442 316L441 315M1297 315L1298 316L1297 315M2054 316L2055 317L2054 316M2061 318L2062 319L2061 318M455 319L456 320L455 319M3284 320L3285 321L3284 320M2072 321L2073 322L2072 321M2269 322L2270 323L2269 322M470 323L471 324L470 323z"/>
    <path style="fill:#939301; stroke:none;" d="M2982 323L2983 324L2982 323z"/>
    <path style="fill:#010101; stroke:none;" d="M2644 325L2645 326L2644 325z"/>
    <path style="fill:#939301; stroke:none;" d="M3082 325L3083 326L3082 325z"/>
    <path style="fill:#010101; stroke:none;" d="M273 327L274 328L273 327M663 329L664 330L663 329z"/>
    <path style="fill:#939301; stroke:none;" d="M3083 329L3084 330L3083 329M2645 331L2646 332L2645 331z"/>
    <path style="fill:#010101; stroke:none;" d="M510 333L511 334L510 333M3281 333L3282 334L3281 333M514 334L515 335L514 334M665 334L666 335L665 334M2132 336L2133 337L2132 336z"/>
    <path style="fill:#939301; stroke:none;" d="M2646 336L2647 337L2646 336M2980 336L2981 337L2980 336M3349 336L3350 337L3349 336z"/>
    <path style="fill:#010101; stroke:none;" d="M1501 337L1502 338L1501 337M269 339L270 340L269 339M3279 339L3280 340L3279 339M2149 340L2150 341L2149 340M548 342L549 343L548 342z"/>
    <path style="fill:#939301; stroke:none;" d="M2909 342L2910 343L2909 342M3088 343L3089 344L3088 343z"/>
    <path style="fill:#010101; stroke:none;" d="M1498 344L1499 345L1498 344M561 345L562 346L561 345M2978 345L2979 346L2978 345M3089 345L3090 346L3089 345z"/>
    <path style="fill:#939301; stroke:none;" d="M2027 346L2028 347L2027 346z"/>
    <path style="fill:#010101; stroke:none;" d="M3090 347L3091 348L3090 347z"/>
    <path style="fill:#939301; stroke:none;" d="M3275 347L3276 348L3275 347z"/>
    <path style="fill:#010101; stroke:none;" d="M409 348L410 349L409 348M433 348L434 349L433 348M574 348L575 349L574 348M2649 348L2650 349L2649 348M2188 349L2189 350L2188 349z"/>
    <path style="fill:#939301; stroke:none;" d="M3091 349L3092 350L3091 349z"/>
    <path style="fill:#010101; stroke:none;" d="M438 351L439 352L438 351M1238 351L1239 352L1238 351z"/>
    <path style="fill:#939301; stroke:none;" d="M2197 351L2198 352L2197 351z"/>
    <path style="fill:#010101; stroke:none;" d="M593 352L594 353L593 352z"/>
    <path style="fill:#939301; stroke:none;" d="M2049 352L2050 353L2049 352M2008 353L2009 354L2008 353z"/>
    <path style="fill:#010101; stroke:none;" d="M2206 353L2207 354L2206 353M79 354L80 355L79 354M397 354L398 355L397 354z"/>
    <path style="fill:#939301; stroke:none;" d="M2208 354L2209 355L2208 354M2902 354L2903 355L2902 354z"/>
    <path style="fill:#010101; stroke:none;" d="M3094 354L3095 355L3094 354M3344 355L3345 356L3344 355M3096 357L3097 358L3096 357M9 358L10 359L9 358M393 358L394 359L393 358M2056 358L2057 359L2056 358M1489 359L1490 360L1489 359M83 360L84 361L83 360M2653 360L2654 361L2653 360z"/>
    <path style="fill:#939301; stroke:none;" d="M2898 360L2899 361L2898 360z"/>
    <path style="fill:#010101; stroke:none;" d="M391 361L392 362L391 361M2728 362L2729 363L2728 362M86 364L87 365L86 364M452 364L453 365L452 364M12 366L13 367L12 366M389 366L390 367L389 366M3103 366L3104 367L3103 366M1482 368L1483 369L1482 368z"/>
    <path style="fill:#939301; stroke:none;" d="M3339 368L3340 369L3339 368M3260 369L3261 370L3260 369z"/>
    <path style="fill:#010101; stroke:none;" d="M14 371L15 372L14 371M2068 372L2069 373L2068 372z"/>
    <path style="fill:#939301; stroke:none;" d="M2658 372L2659 373L2658 372M2277 374L2278 375L2277 374z"/>
    <path style="fill:#010101; stroke:none;" d="M590 375L591 376L590 375M667 376L668 377L667 376M3113 376L3114 377L3113 376M462 377L463 378L462 377z"/>
    <path style="fill:#939301; stroke:none;" d="M2965 379L2966 380L2965 379z"/>
    <path style="fill:#010101; stroke:none;" d="M1333 380L1334 381L1333 380z"/>
    <path style="fill:#939301; stroke:none;" d="M2964 381L2965 382L2964 381M3119 381L3120 382L3119 381z"/>
    <path style="fill:#010101; stroke:none;" d="M19 382L20 383L19 382M237 382L238 383L237 382M583 382L584 383L583 382M2275 382L2276 383L2275 382M1467 383L1468 384L1467 383M20 384L21 385L20 384z"/>
    <path style="fill:#939301; stroke:none;" d="M2664 384L2665 385L2664 384z"/>
    <path style="fill:#010101; stroke:none;" d="M2274 385L2275 386L2274 385z"/>
    <path style="fill:#939301; stroke:none;" d="M2875 385L2876 386L2875 385z"/>
    <path style="fill:#010101; stroke:none;" d="M232 386L233 387L232 386M664 386L665 387L664 386M2665 386L2666 387L2665 386M2753 386L2754 387L2753 386z"/>
    <path style="fill:#939301; stroke:none;" d="M3126 386L3127 387L3126 386z"/>
    <path style="fill:#010101; stroke:none;" d="M22 387L23 388L22 387M111 387L112 388L111 387M1998 387L1999 388L1998 387z"/>
    <path style="fill:#939301; stroke:none;" d="M2871 388L2872 389L2871 388z"/>
    <path style="fill:#010101; stroke:none;" d="M2960 388L2961 389L2960 388M114 389L115 390L114 389M24 390L25 391L24 390z"/>
    <path style="fill:#939301; stroke:none;" d="M2272 390L2273 391L2272 390z"/>
    <path style="fill:#010101; stroke:none;" d="M2759 390L2760 391L2759 390M1456 391L1457 392L1456 391z"/>
    <path style="fill:#939301; stroke:none;" d="M1999 391L2000 392L1999 391M3234 391L3235 392L3234 391M2865 392L2866 393L2865 392z"/>
    <path style="fill:#010101; stroke:none;" d="M3136 392L3137 393L3136 392z"/>
    <path style="fill:#939301; stroke:none;" d="M2093 393L2094 394L2093 393z"/>
    <path style="fill:#010101; stroke:none;" d="M2764 393L2765 394L2764 393M1449 395L1450 396L1449 395M3142 395L3143 396L3142 395M490 396L491 397L490 396M1447 396L1448 397L1447 396z"/>
    <path style="fill:#939301; stroke:none;" d="M2671 396L2672 397L2671 396M3224 396L3225 397L3224 396z"/>
    <path style="fill:#010101; stroke:none;" d="M659 397L660 398L659 397z"/>
    <path style="fill:#939301; stroke:none;" d="M2102 397L2103 398L2102 397M2772 397L2773 398L2772 397M2954 397L2955 398L2954 397z"/>
    <path style="fill:#010101; stroke:none;" d="M1261 398L1262 399L1261 398z"/>
    <path style="fill:#939301; stroke:none;" d="M2268 398L2269 399L2268 398z"/>
    <path style="fill:#010101; stroke:none;" d="M209 399L210 400L209 399M2777 399L2778 400L2777 399M3321 399L3322 400L3321 399z"/>
    <path style="fill:#939301; stroke:none;" d="M3212 400L3213 401L3212 400z"/>
    <path style="fill:#010101; stroke:none;" d="M506 401L507 402L506 401M547 401L548 402L547 401M542 402L543 403L542 402z"/>
    <path style="fill:#939301; stroke:none;" d="M2121 402L2122 403L2121 402M2786 402L2787 403L2786 402z"/>
    <path style="fill:#010101; stroke:none;" d="M1427 403L1428 404L1427 403z"/>
    <path style="fill:#939301; stroke:none;" d="M2005 403L2006 404L2005 403M2130 403L2131 404L2130 403M2265 403L2266 404L2265 403z"/>
    <path style="fill:#010101; stroke:none;" d="M2790 403L2791 404L2790 403z"/>
    <path style="fill:#939301; stroke:none;" d="M3173 403L3174 404L3173 403M3193 403L3194 404L3193 403M2795 404L2796 405L2795 404M3317 404L3318 405L3317 404z"/>
    <path style="fill:#010101; stroke:none;" d="M182 405L183 406L182 405M1392 405L1393 406L1392 405z"/>
    <path style="fill:#939301; stroke:none;" d="M2948 405L2949 406L2948 405z"/>
    <path style="fill:#010101; stroke:none;" d="M36 406L37 407L36 406z"/>
    <path style="fill:#939301; stroke:none;" d="M2263 406L2264 407L2263 406z"/>
    <path style="fill:#010101; stroke:none;" d="M2681 410L2682 411L2681 410M3312 410L3313 411L3312 410z"/>
    <path style="fill:#939301; stroke:none;" d="M2682 411L2683 412L2682 411M2943 411L2944 412L2943 411M3311 411L3312 412L3311 411z"/>
    <path style="fill:#010101; stroke:none;" d="M649 412L650 413L649 412z"/>
    <path style="fill:#939301; stroke:none;" d="M2013 413L2014 414L2013 413z"/>
    <path style="fill:#010101; stroke:none;" d="M1274 414L1275 415L1274 414z"/>
    <path style="fill:#939301; stroke:none;" d="M2257 414L2258 415L2257 414M2685 414L2686 415L2685 414z"/>
    <path style="fill:#010101; stroke:none;" d="M406 416L407 417L406 416z"/>
    <path style="fill:#939301; stroke:none;" d="M2688 417L2689 418L2688 417M2689 418L2690 419L2689 418M2690 419L2691 420L2690 419M2691 420L2692 421L2691 420z"/>
    <path style="fill:#010101; stroke:none;" d="M2022 423L2023 424L2022 423z"/>
    <path style="fill:#939301; stroke:none;" d="M2023 424L2024 425L2023 424M3298 424L3299 425L3298 424M2024 425L2025 426L2024 425z"/>
    <path style="fill:#010101; stroke:none;" d="M3297 425L3298 426L3297 425z"/>
    <path style="fill:#939301; stroke:none;" d="M2025 426L2026 427L2025 426M2026 427L2027 428L2026 427z"/>
    <path style="fill:#010101; stroke:none;" d="M634 428L635 429L634 428z"/>
    <path style="fill:#939301; stroke:none;" d="M2027 428L2028 429L2027 428M2926 428L2927 429L2926 428z"/>
    <path style="fill:#010101; stroke:none;" d="M2028 429L2029 430L2028 429z"/>
    <path style="fill:#939301; stroke:none;" d="M2701 429L2702 430L2701 429z"/>
    <path style="fill:#010101; stroke:none;" d="M1292 432L1293 433L1292 432z"/>
    <path style="fill:#939301; stroke:none;" d="M2239 432L2240 433L2239 432z"/>
    <path style="fill:#010101; stroke:none;" d="M63 434L64 435L63 434M2919 434L2920 435L2919 434M425 435L426 436L425 435M276 437L277 438L276 437z"/>
    <path style="fill:#939301; stroke:none;" d="M2037 437L2038 438L2037 437z"/>
    <path style="fill:#010101; stroke:none;" d="M2712 438L2713 439L2712 438M3081 438L3082 439L3081 438M1505 439L1506 440L1505 439M431 440L432 441L431 440z"/>
    <path style="fill:#939301; stroke:none;" d="M2229 440L2230 441L2229 440M3278 440L3279 441L3278 440z"/>
    <path style="fill:#010101; stroke:none;" d="M342 441L343 442L342 441z"/>
    <path style="fill:#939301; stroke:none;" d="M2042 441L2043 442L2042 441z"/>
    <path style="fill:#010101; stroke:none;" d="M1126 442L1127 443L1126 442M916 443L917 444L916 443z"/>
    <path style="fill:#939301; stroke:none;" d="M2907 443L2908 444L2907 443z"/>
    <path style="fill:#010101; stroke:none;" d="M1701 444L1702 445L1701 444z"/>
    <path style="fill:#939301; stroke:none;" d="M2046 444L2047 445L2046 444M3089 444L3090 445L3089 444z"/>
    <path style="fill:#010101; stroke:none;" d="M1573 445L1574 446L1573 445M1969 445L1970 446L1969 445M2222 445L2223 446L2222 445M1310 446L1311 447L1310 446M1637 447L1638 448L1637 447z"/>
    <path style="fill:#939301; stroke:none;" d="M2219 447L2220 448L2219 447M2311 447L2312 448L2311 447M2554 447L2555 448L2554 447M2619 447L2620 448L2619 447z"/>
    <path style="fill:#010101; stroke:none;" d="M442 448L443 449L442 448M1313 448L1314 449L1313 448M3266 448L3267 449L3266 448M2216 449L2217 450L2216 449M2728 449L2729 450L2728 449M85 450L86 451L85 450M917 450L918 451L917 450M1509 450L1510 451L1509 450M708 451L709 452L708 451z"/>
    <path style="fill:#939301; stroke:none;" d="M2618 451L2619 452L2618 451M2895 451L2896 452L2895 451z"/>
    <path style="fill:#010101; stroke:none;" d="M1487 452L1488 453L1487 452M1510 452L1511 453L1510 452z"/>
    <path style="fill:#939301; stroke:none;" d="M2058 452L2059 453L2058 452z"/>
    <path style="fill:#010101; stroke:none;" d="M918 453L919 454L918 453z"/>
    <path style="fill:#939301; stroke:none;" d="M2735 453L2736 454L2735 453M2373 454L2374 455L2373 454z"/>
    <path style="fill:#010101; stroke:none;" d="M1325 455L1326 456L1325 455M1327 456L1328 457L1327 456z"/>
    <path style="fill:#939301; stroke:none;" d="M2372 456L2373 457L2372 456z"/>
    <path style="fill:#010101; stroke:none;" d="M920 457L921 458L920 457M1329 457L1330 458L1329 457M1513 457L1514 458L1513 457M1641 457L1642 458L1641 457M1965 457L1966 458L1965 457M2883 457L2884 458L2883 457M591 458L592 459L591 458M1331 458L1332 459L1331 458M2316 458L2317 459L2316 458M2559 458L2560 459L2559 458z"/>
    <path style="fill:#939301; stroke:none;" d="M3245 458L3246 459L3245 458z"/>
    <path style="fill:#010101; stroke:none;" d="M102 459L103 460L102 459M712 459L713 460L712 459M3116 459L3117 460L3116 459M284 460L285 461L284 460z"/>
    <path style="fill:#939301; stroke:none;" d="M2749 460L2750 461L2749 460z"/>
    <path style="fill:#010101; stroke:none;" d="M1694 461L1695 462L1694 461z"/>
    <path style="fill:#939301; stroke:none;" d="M3237 461L3238 462L3237 461z"/>
    <path style="fill:#010101; stroke:none;" d="M972 462L973 463L972 462M1693 462L1694 463L1693 462M3124 462L3125 463L3124 462M1182 463L1183 464L1182 463M1343 463L1344 464L1343 463M1564 463L1565 464L1564 463z"/>
    <path style="fill:#939301; stroke:none;" d="M3231 463L3232 464L3231 463z"/>
    <path style="fill:#010101; stroke:none;" d="M1646 464L1647 465L1646 464M2185 464L2186 465L2185 464z"/>
    <path style="fill:#939301; stroke:none;" d="M2365 464L2366 465L2365 464z"/>
    <path style="fill:#010101; stroke:none;" d="M2759 464L2760 465L2759 464M758 465L759 466L758 465M1520 465L1521 466L1520 465M1647 465L1648 466L1647 465M2607 465L2608 466L2607 465z"/>
    <path style="fill:#939301; stroke:none;" d="M2762 465L2763 466L2762 465z"/>
    <path style="fill:#010101; stroke:none;" d="M3134 465L3135 466L3134 465M121 466L122 467L121 466M223 466L224 467L223 466M2323 466L2324 467L2323 466z"/>
    <path style="fill:#939301; stroke:none;" d="M2362 466L2363 467L2362 466z"/>
    <path style="fill:#010101; stroke:none;" d="M2566 466L2567 467L2566 466M3138 466L3139 467L3138 466M565 467L566 468L565 467M1558 467L1559 468L1558 467M3216 467L3217 468L3216 467M487 468L488 469L487 468M1556 468L1557 469L1556 468M133 469L134 470L133 469M1526 469L1527 470L1526 469M1923 469L1924 470L1923 469M2101 469L2102 470L2101 469M725 470L726 471L725 470M1169 470L1170 471L1169 470z"/>
    <path style="fill:#939301; stroke:none;" d="M2160 470L2161 471L2160 470M2353 470L2354 471L2353 470M2596 470L2597 471L2596 470M3168 470L3169 471L3168 470M3193 470L3194 471L3193 470z"/>
    <path style="fill:#010101; stroke:none;" d="M197 471L198 472L197 471M503 471L504 472L503 471M728 471L729 472L728 471M744 471L745 472L744 471M1531 471L1532 472L1531 471M1943 471L1944 472L1943 471M2153 471L2154 472L2153 471M184 472L185 473L184 472M1536 472L1537 473L1536 472M1543 472L1544 473L1543 472M1671 472L1672 473L1671 472M2124 472L2125 473L2124 472M2141 472L2142 473L2141 472M2338 472L2339 473L2338 472M2581 472L2582 473L2581 472z"/>
    <path style="fill:#939301; stroke:none;" d="M2799 472L2800 473L2799 472z"/>
    <path style="fill:#010101; stroke:none;" d="M2824 472L2825 473L2824 472M3013 573L3014 574L3013 573M3016 582L3017 583L3016 582M3019 588L3020 589L3019 588z"/>
    <path style="fill:#939301; stroke:none;" d="M3072 590L3073 591L3072 590M3021 591L3022 592L3021 591z"/>
    <path style="fill:#010101; stroke:none;" d="M3069 593L3070 594L3069 593z"/>
    <path style="fill:#939301; stroke:none;" d="M3063 597L3064 598L3063 597M3061 598L3062 599L3061 598z"/>
    <path style="fill:#010101; stroke:none;" d="M3036 602L3037 603L3036 602z"/>
    <path style="fill:#939301; stroke:none;" d="M3050 602L3051 603L3050 602z"/>
    <path style="fill:#010101; stroke:none;" d="M3041 603L3042 604L3041 603z"/>
</svg>
